<svg xmlns="http://www.w3.org/2000/svg" width="885" height="517" viewBox="0 0 885 517" version="1.1"><path d="M 197 166.477 L 197 276 113 276 L 29 276 29 297.500 L 29 319 135.493 319 L 241.986 319 242.243 250.152 L 242.500 181.303 281.500 248.212 C 302.950 285.012, 321.175 316.443, 322 318.059 L 323.500 320.997 337.895 320.748 L 352.289 320.500 374.704 277.524 C 387.032 253.888, 397.317 234.350, 397.559 234.108 C 397.802 233.865, 398.214 233.881, 398.477 234.143 C 398.846 234.513, 415 320.039, 415 321.625 C 415 321.831, 425.125 322, 437.500 322 C 457.021 322, 460 321.798, 460 320.471 C 460 319.631, 452.800 280.971, 444 234.562 C 435.200 188.153, 428 149.241, 428 148.091 C 428 146.045, 427.570 145.996, 408 145.833 C 397 145.742, 387.281 145.629, 386.403 145.583 C 385.284 145.525, 379.166 156.436, 365.981 182 C 337.995 236.263, 337.065 238, 335.991 238 C 335.446 238, 335 237.620, 335 237.155 C 335 236.690, 333.134 233.428, 330.854 229.905 C 326.393 223.012, 272.805 128.729, 248.210 84.500 L 233.196 57.500 215.098 57.227 L 197 56.955 197 166.477 M 37.147 337.492 C 37.374 338.649, 39.145 339.772, 42.100 340.633 C 47.775 342.286, 51.706 346.070, 52.726 350.862 C 53.846 356.126, 53.143 423.753, 51.921 428.292 C 50.741 432.675, 46.990 435.426, 40.857 436.407 C 37.882 436.883, 36.944 437.463, 37.181 438.682 C 37.463 440.126, 39.725 440.323, 56.500 440.358 C 71.963 440.390, 75.500 440.142, 75.500 439.025 C 75.500 438.182, 73.437 437.187, 70.158 436.448 C 63.439 434.935, 62.280 433.749, 61.018 427.096 C 59.774 420.537, 59.642 357.661, 60.874 358.422 C 61.355 358.719, 64.792 364.933, 68.514 372.231 C 72.235 379.529, 77.408 389.550, 80.009 394.500 C 82.611 399.450, 88.920 411.712, 94.030 421.750 C 99.139 431.788, 103.875 440, 104.553 440 C 105.929 440, 105.981 439.889, 110.192 428 C 115.416 413.254, 139.028 356.677, 140.648 355.027 C 140.904 354.767, 140.975 371.642, 140.806 392.527 C 140.578 420.858, 140.178 431.062, 139.234 432.715 C 138.506 433.988, 136.167 435.444, 133.734 436.140 C 129.024 437.486, 126.790 438.851, 127.477 439.963 C 127.927 440.690, 176.349 440.221, 178.733 439.466 C 181.191 438.688, 178.797 436, 175.643 435.996 C 173.914 435.994, 171.084 435.129, 169.353 434.074 C 163.855 430.721, 163.500 428.139, 163.500 391.500 C 163.500 373.350, 163.874 355.879, 164.331 352.675 C 165.461 344.760, 168.790 341.003, 175.330 340.266 C 179.013 339.851, 180.024 339.363, 179.784 338.115 C 179.446 336.359, 179.532 336.364, 153.616 336.783 L 140.232 337 137.947 342.750 C 126.575 371.367, 111.772 405.251, 110.469 405.652 C 109.345 405.998, 100.901 390.674, 84.899 359.250 L 73.569 337 62.035 336.993 C 55.691 336.989, 47.416 336.695, 43.647 336.339 C 37.397 335.748, 36.825 335.850, 37.147 337.492 M 420.365 350.750 C 420.640 351.712, 424.375 371.738, 428.664 395.250 L 436.463 438 458.732 438 L 481 438 481.041 434.750 C 481.064 432.962, 477.595 412.938, 473.332 390.250 L 465.581 349 442.723 349 C 421.430 349, 419.899 349.120, 420.365 350.750 M 622.500 353.155 C 616.978 356.175, 616.310 362.400, 621.077 366.411 C 625.892 370.463, 631.711 369.394, 634.531 363.940 C 638.270 356.709, 629.832 349.144, 622.500 353.155 M 195 356.631 C 191.591 359.022, 191.033 359.999, 191.015 363.614 C 190.980 370.754, 199.955 374.524, 205.544 369.716 C 208.857 366.866, 209.239 360.795, 206.290 357.846 C 203.516 355.072, 198.060 354.485, 195 356.631 M 327 355.987 C 327 356.529, 328.506 357.602, 330.347 358.372 C 333.403 359.648, 333.750 360.237, 334.338 365.135 C 334.693 368.086, 334.987 375.100, 334.991 380.722 L 335 390.944 330.250 388.390 C 322.046 383.980, 311.597 386.292, 303.904 394.218 C 297.801 400.508, 296.500 404.178, 296.500 415.113 C 296.500 424.398, 296.616 424.896, 299.893 429.699 C 307.837 441.339, 322.391 444.542, 330.500 436.434 C 332.388 434.545, 334.173 433, 334.467 433 C 334.760 433, 335 434.575, 335 436.500 L 335 440 346.083 440 C 354.236 440, 357.061 439.684, 356.768 438.805 C 356.549 438.147, 355.087 437.266, 353.520 436.847 C 351.953 436.428, 350.302 435.503, 349.851 434.792 C 349.400 434.082, 349.024 415.837, 349.015 394.250 L 349 355 338 355 C 331.433 355, 327 355.398, 327 355.987 M 583.645 371.867 C 580.155 379.216, 576.115 383.064, 568.773 386.033 C 562.069 388.744, 562.383 390.708, 569.599 391.198 L 574.038 391.500 574.269 409.500 C 574.537 430.364, 575.101 432.290, 581.962 435.750 C 589.386 439.494, 599.364 438.327, 605.303 433.021 C 609.321 429.430, 608.311 428.258, 603.021 430.375 C 597.386 432.630, 594.319 432.410, 591.455 429.545 C 589.031 427.122, 589 426.865, 589 409.146 L 589 391.200 597.250 390.350 C 605.265 389.524, 605.509 389.422, 605.816 386.750 L 606.133 384 597.605 384 L 589.078 384 588.789 375.331 C 588.629 370.534, 588.040 366.509, 587.470 366.321 C 586.904 366.134, 585.183 368.629, 583.645 371.867 M 517.173 384.419 C 508.885 387.130, 501.951 393.597, 499.056 401.315 C 497.332 405.911, 497.796 417.956, 499.871 422.500 C 502.189 427.575, 507.117 432.383, 512.945 435.255 C 519.861 438.663, 532.640 438.457, 539.500 434.825 C 560.395 423.765, 561.614 396.439, 541.663 386.329 C 535.430 383.171, 523.769 382.261, 517.173 384.419 M 621 383.930 C 613.374 384.510, 611.082 386.061, 616.473 386.995 C 621.428 387.854, 621.969 390.328, 621.985 412.191 C 622.001 433.272, 622.113 432.820, 616.587 433.951 C 614.889 434.298, 613.500 435.185, 613.500 435.922 C 613.500 436.979, 616.835 437.298, 629.250 437.432 C 641.595 437.564, 645 437.319, 645 436.300 C 645 435.585, 643.961 435, 642.691 435 C 641.421 435, 639.582 434.415, 638.603 433.699 C 636.981 432.513, 636.834 430.369, 636.940 409.354 C 637.004 396.680, 636.771 385.566, 636.421 384.655 C 635.745 382.894, 635.062 382.862, 621 383.930 M 673.173 384.419 C 664.831 387.148, 657.953 393.593, 655.008 401.442 C 654.400 403.060, 653.894 407.424, 653.882 411.140 C 653.847 422.351, 658.674 430.202, 668.608 435.092 C 675.627 438.547, 688.442 438.552, 695.192 435.102 C 707.727 428.695, 714.554 414.194, 711.004 401.516 C 709.370 395.679, 703.329 388.845, 697.298 386.010 C 691.273 383.178, 679.366 382.393, 673.173 384.419 M 728.250 383.744 C 723.712 383.929, 720 384.501, 720 385.015 C 720 385.528, 721.295 386.619, 722.879 387.437 C 724.462 388.256, 726.037 389.654, 726.379 390.545 C 727.194 392.669, 727.162 424.385, 726.340 429.363 C 725.810 432.567, 725.111 433.473, 722.243 434.672 C 720.340 435.467, 719.052 436.386, 719.380 436.714 C 720.303 437.636, 748.079 437.682, 748.647 436.762 C 748.924 436.314, 747.785 435.472, 746.116 434.891 C 744.447 434.309, 742.864 433.083, 742.598 432.166 C 740.229 424.007, 741.600 405.583, 745.120 398.273 C 749.112 389.984, 756.491 386.567, 760.595 391.107 C 762.329 393.025, 762.500 394.938, 762.500 412.454 C 762.500 432.712, 762.031 435, 757.878 435 C 756.845 435, 756 435.581, 756 436.290 C 756 437.283, 759.233 437.581, 770 437.581 C 780.767 437.581, 784 437.283, 784 436.290 C 784 435.581, 783.132 435, 782.071 435 C 781.011 435, 779.407 434.264, 778.508 433.365 C 777.086 431.943, 776.913 429.241, 777.180 412.615 C 777.446 396.061, 777.257 393.078, 775.771 390.352 C 773.745 386.638, 766.882 382.996, 761.934 383.010 C 757.627 383.022, 749.270 386.899, 746.076 390.368 C 743.221 393.467, 742 393.701, 742 391.149 C 742 387.467, 739.835 382.996, 738.152 383.204 C 737.243 383.315, 732.788 383.559, 728.250 383.744 M 193.735 386.927 C 187.106 387.488, 184.534 389.197, 189.396 389.809 C 194.139 390.406, 194.481 391.906, 194.776 413.401 C 194.927 424.456, 194.648 434.107, 194.155 434.850 C 193.662 435.592, 191.741 436.510, 189.885 436.890 C 188.030 437.269, 186.386 438.237, 186.231 439.040 C 185.995 440.270, 188.472 440.504, 201.975 440.524 C 214.304 440.543, 218 440.255, 218 439.274 C 218 438.573, 216.961 438, 215.691 438 C 214.421 438, 212.576 437.411, 211.591 436.690 C 209.956 435.494, 209.812 433.462, 209.939 413.271 C 210.016 401.110, 209.787 390, 209.431 388.581 C 208.717 385.738, 208.290 385.693, 193.735 386.927 M 232.250 386.744 C 227.713 386.929, 224 387.501, 224 388.015 C 224 388.528, 225.293 389.617, 226.873 390.434 C 228.453 391.251, 230.022 392.950, 230.359 394.210 C 231.179 397.268, 231.173 428.885, 230.352 432.988 C 229.859 435.456, 228.883 436.569, 226.244 437.671 C 224.341 438.467, 223.056 439.389, 223.388 439.721 C 224.289 440.623, 252.114 440.625, 252.671 439.724 C 252.934 439.297, 251.764 438.465, 250.069 437.874 C 246.121 436.498, 245.474 434.127, 245.599 421.500 C 245.728 408.514, 247.780 401.367, 252.934 395.948 C 256.205 392.510, 257.354 391.911, 260.162 392.180 C 262.816 392.434, 263.870 393.217, 265.307 396 C 266.890 399.065, 267.075 401.686, 266.798 417.108 C 266.466 435.542, 265.887 438, 261.878 438 C 260.845 438, 260 438.581, 260 439.290 C 260 440.283, 263.233 440.581, 274 440.581 C 284.767 440.581, 288 440.283, 288 439.290 C 288 438.581, 287.110 438, 286.023 438 C 284.936 438, 283.324 436.899, 282.443 435.553 C 281.088 433.486, 280.890 430.338, 281.169 415.303 C 281.541 395.308, 281.025 392.913, 275.541 389.163 C 268.442 384.310, 259.960 385.367, 251.821 392.118 C 246.492 396.538, 246 396.710, 246 394.149 C 246 390.467, 243.835 385.996, 242.152 386.204 C 241.243 386.315, 236.787 386.559, 232.250 386.744 M 521.378 387.984 C 520.210 388.455, 518.185 391.014, 516.878 393.671 C 514.844 397.801, 514.505 399.947, 514.536 408.500 C 514.579 420.605, 516.109 426.309, 520.490 430.690 C 526.235 436.435, 533.504 434.449, 536.659 426.271 C 539.533 418.822, 539.067 403.300, 535.746 395.888 C 532.146 387.852, 527.726 385.420, 521.378 387.984 M 677.269 388.212 C 676.043 388.804, 674.018 391.361, 672.769 393.894 C 670.819 397.853, 670.504 400.050, 670.526 409.532 C 670.550 419.477, 670.820 421.112, 673.270 426.119 C 678.294 436.387, 687.425 436.858, 692.235 427.096 C 695.415 420.644, 695.388 403.891, 692.188 396.733 C 688.281 387.996, 683.443 385.232, 677.269 388.212 M 318.306 391.498 C 314.566 394.118, 312.497 401.452, 312.523 412 C 312.536 417.225, 313.129 423.463, 313.842 425.861 C 315.412 431.147, 319.302 435, 323.069 435 C 327.024 435, 331.743 430.631, 333.141 425.677 C 334.979 419.162, 334.605 402.337, 332.507 397.212 C 329.870 390.767, 323.188 388.079, 318.306 391.498" stroke="none" fill="#29ccaa" fill-rule="evenodd" data-index="0" style="opacity: 1; visibility: visible;"></path></svg>
